<svg width="100" height="100" viewBox="0 0 100 100" fill="none" xmlns="http://www.w3.org/2000/svg">
<path d="M49.5 50.5C51.7344 50.5 53.6478 49.7076 55.2403 48.1227C56.8328 46.5378 57.6277 44.6302 57.625 42.4C57.6223 40.1698 56.8274 38.2636 55.2403 36.6814C53.6532 35.0992 51.7398 34.3054 49.5 34.3C47.2602 34.2946 45.3481 35.0884 43.7637 36.6814C42.1794 38.2744 41.3831 40.1806 41.375 42.4C41.3669 44.6194 42.1631 46.527 43.7637 48.1227C45.3644 49.7184 47.2765 50.5108 49.5 50.5ZM49.5 80.2675C57.7604 72.7075 63.888 65.8401 67.8828 59.6652C71.8776 53.4903 73.875 48.0052 73.875 43.21C73.875 35.8525 71.5228 29.8288 66.8184 25.1389C62.1141 20.449 56.3412 18.1027 49.5 18.1C42.6587 18.0973 36.8873 20.4436 32.1856 25.1389C27.484 29.8342 25.1304 35.8579 25.125 43.21C25.125 48.0025 27.1224 53.4876 31.1172 59.6652C35.112 65.8428 41.2396 72.7102 49.5 80.2675ZM49.5 91C38.599 81.7525 30.4577 73.1638 25.0762 65.2339C19.6948 57.304 17.0027 49.9627 17 43.21C17 33.085 20.2676 25.0188 26.8028 19.0113C33.338 13.0037 40.9037 10 49.5 10C58.0962 10 65.6633 13.0037 72.2012 19.0113C78.7392 25.0188 82.0054 33.085 82 43.21C82 49.96 79.3093 57.3013 73.9278 65.2339C68.5464 73.1665 60.4037 81.7552 49.5 91Z" fill="black"/>
</svg>
