<svg width="300" height="300" viewBox="0 0 300 300" fill="none" xmlns="http://www.w3.org/2000/svg">
<path d="M163.979 58.332C168.257 58.332 172.266 59.2487 176.006 61.082C179.746 62.9154 182.917 65.5126 185.521 68.8737L231.583 127.311C232.805 128.686 233.34 130.327 233.187 132.234C233.035 134.14 232.347 135.708 231.125 136.936C228.069 140.145 224.403 142.054 220.125 142.665C215.847 143.276 211.875 142.436 208.208 140.145L191.25 129.832L191.25 204.999C191.25 207.596 190.37 209.771 188.61 211.525C186.85 213.279 184.674 214.159 182.083 214.165C179.492 214.171 177.277 213.291 175.437 211.525C173.598 209.759 172.681 207.584 172.687 204.999L172.687 113.332C172.687 109.818 174.255 107.181 177.39 105.421C180.525 103.661 183.617 103.701 186.667 105.54L194.917 110.582L171.083 80.1029C170.167 79.0334 169.097 78.1931 167.875 77.582C166.653 76.9709 165.354 76.6654 163.979 76.6654L113.333 76.6654C108.292 76.6654 103.974 78.459 100.381 82.0462C96.7874 85.6334 94.9938 89.9509 94.9999 94.9987L94.9999 131.665C94.9999 134.263 95.8799 136.438 97.6399 138.192C99.3999 139.946 101.575 140.826 104.167 140.832L145.187 140.832C147.785 140.832 149.96 141.712 151.714 143.472C153.468 145.232 154.348 147.408 154.354 149.999C154.36 152.59 153.48 154.765 151.714 156.525C149.948 158.285 147.772 159.165 145.187 159.165L104.167 159.165C96.5277 159.165 90.0346 156.492 84.6874 151.145C79.3402 145.797 76.6666 139.304 76.6666 131.665L76.6666 94.9987C76.6666 84.9154 80.2568 76.2834 87.4374 69.1029C94.618 61.9223 103.25 58.332 113.333 58.332L163.979 58.332ZM150.229 177.499C152.826 177.499 155.002 178.379 156.756 180.139C158.51 181.899 159.39 184.074 159.396 186.665C159.396 186.971 159.014 188.499 158.25 191.249C157.028 193.388 156.111 195.563 155.5 197.775C154.889 199.988 154.583 202.395 154.583 204.999C154.583 212.638 157.257 219.131 162.604 224.478C167.951 229.825 174.444 232.499 182.083 232.499C189.722 232.499 196.215 229.825 201.562 224.478C206.91 219.131 209.583 212.638 209.583 204.999C209.583 202.401 209.278 199.994 208.667 197.775C208.055 195.557 207.139 193.381 205.917 191.249C205.458 190.485 205.153 189.721 205 188.957C204.847 188.193 204.771 187.429 204.771 186.665C204.771 184.068 205.611 181.89 207.292 180.13C208.972 178.37 211.111 177.493 213.708 177.499C215.389 177.499 216.953 177.957 218.402 178.874C219.85 179.79 220.959 180.936 221.729 182.311C223.715 185.672 225.243 189.263 226.312 193.082C227.382 196.901 227.917 200.874 227.917 204.999C227.917 217.679 223.446 228.487 214.506 237.421C205.565 246.356 194.758 250.826 182.083 250.832C169.409 250.838 158.598 246.368 149.652 237.421C140.705 228.475 136.238 217.667 136.25 204.999C136.25 200.874 136.785 196.901 137.854 193.082C138.924 189.263 140.451 185.672 142.437 182.311C143.201 180.936 144.271 179.79 145.646 178.874C147.021 177.957 148.549 177.499 150.229 177.499Z" fill="black"/>
</svg>
