<svg width="300" height="300" viewBox="0 0 300 300" fill="none" xmlns="http://www.w3.org/2000/svg">
<path d="M174.622 160.926C161.477 165.106 148.736 153.501 151.678 140.026C151.8 139.458 151.953 138.898 152.136 138.348C159.387 115.505 164.053 110.94 166.015 108.969C166.269 108.696 166.458 108.368 166.567 108.011C166.677 107.653 166.704 107.276 166.647 106.907C166.603 106.574 166.484 106.255 166.298 105.976C166.112 105.696 165.865 105.463 165.575 105.293C156.541 101.193 146.74 99.0558 136.819 99.0234C117.812 99.0259 99.5842 106.577 86.1435 120.016C72.7028 133.455 65.1496 151.682 65.1447 170.688C65.0131 173.223 65.0131 175.762 65.1447 178.297C65.1644 178.623 65.1195 178.949 65.0125 179.257C64.9055 179.566 64.7386 179.85 64.5214 180.093C56.2871 190.59 49.6462 202.244 44.813 214.679C42.761 218.723 41.8909 223.263 42.3028 227.779C42.7146 232.295 44.3917 236.603 47.1414 240.208C50.5055 243.417 55.0247 245.131 59.6814 244.957C72.6203 243.472 84.9614 238.69 95.523 231.069C95.8713 230.853 96.2729 230.739 96.6826 230.739C97.0924 230.739 97.494 230.853 97.8422 231.069C144.143 261.072 205.551 229.694 208.392 174.603C208.453 173.301 208.484 171.996 208.484 170.688C208.451 163.712 207.423 156.777 205.431 150.091C205.317 149.743 205.118 149.43 204.853 149.179C204.587 148.927 204.263 148.746 203.91 148.652C203.609 148.483 203.269 148.395 202.924 148.395C202.579 148.395 202.24 148.483 201.939 148.652C193.476 154.045 184.274 158.179 174.622 160.926ZM128.303 165.766C129.48 164.645 131.024 163.988 132.649 163.919C134.273 163.849 135.867 164.371 137.136 165.387C138.405 166.403 139.263 167.845 139.55 169.445C139.837 171.045 139.535 172.695 138.698 174.089C103.581 207.328 75.173 224.084 63.8064 226.77C63.4332 226.883 63.0364 226.893 62.6583 226.798C62.2801 226.703 61.9348 226.507 61.6591 226.232C61.3834 225.956 61.1877 225.611 61.0929 225.232C60.998 224.854 61.0076 224.457 61.1205 224.084C62.1944 219.971 63.7578 216.001 65.7772 212.259C66.9414 210.013 68.2797 207.511 69.9022 204.733C70.1245 204.428 70.4218 204.185 70.7654 204.027C71.1089 203.87 71.4873 203.804 71.8639 203.835C72.2557 203.834 72.64 203.943 72.9735 204.149C73.3071 204.354 73.5767 204.649 73.7522 204.999C73.8827 205.265 74.0704 205.5 74.3017 205.685C74.533 205.87 74.8023 206.002 75.0905 206.072C75.6894 206.255 76.2883 206.255 76.8872 206.072C95.32 194.371 112.537 180.869 128.303 165.766Z" fill="black"/>
<path d="M198.446 127.963C198.409 124.406 196.996 121.003 194.504 118.466C191.93 116.054 188.535 114.711 185.007 114.711C181.48 114.711 178.084 116.054 175.511 118.466C170.854 125.928 167.261 134.003 164.85 142.473C164.612 143.268 164.595 144.113 164.8 144.917C165.005 145.721 165.425 146.454 166.014 147.038C166.594 147.605 167.318 148.005 168.107 148.193C168.896 148.382 169.722 148.354 170.496 148.111C178.967 145.758 187.056 142.198 194.513 137.542C197.016 134.975 198.418 131.547 198.446 127.963ZM248.789 55.9309L234.819 61.9351C231.537 63.4201 228.512 65.4184 225.863 67.8476L215.468 78.4167C209.602 76.8921 203.449 76.8565 197.566 78.3132C191.683 79.7699 186.257 82.6728 181.781 86.7584L178.646 89.8842C177.822 90.7384 177.362 91.8786 177.362 93.0651C177.362 94.2515 177.822 95.3917 178.646 96.2459L216.632 134.233C217.485 135.085 218.649 135.571 219.859 135.571C220.444 135.568 221.023 135.447 221.561 135.218C222.1 134.988 222.587 134.653 222.994 134.233L226.129 131.098C230.241 126.657 233.162 121.247 234.619 115.372C236.077 109.498 236.022 103.35 234.461 97.5017L245.205 86.7492C247.649 84.1219 249.621 81.0921 251.035 77.7934L257.03 63.8142C257.663 62.6658 257.918 61.3468 257.759 60.0449C257.599 58.7431 257.033 57.5248 256.141 56.5634C255.142 55.6891 253.891 55.1562 252.568 55.0425C251.246 54.9287 249.922 55.24 248.789 55.9309Z" fill="black"/>
</svg>
